<svg width="32" height="32" fill="none" xmlns="http://www.w3.org/2000/svg"><g opacity=".3" fill="#fff"><path d="M16 5.973a5.093 5.093 0 1 0 0 10.187 5.093 5.093 0 0 0 0-10.187Zm0 8.41a3.315 3.315 0 1 1 3.316-3.316A3.316 3.316 0 0 1 16 14.373v.01Z"/><path d="M16 1.778A10.48 10.48 0 0 0 5.529 12.204c0 4.151 2.329 7.627 4.035 10.16l.312.463a88.564 88.564 0 0 0 5.457 7.11l.676.792.675-.791a88.738 88.738 0 0 0 5.458-7.111l.311-.471c1.698-2.534 4.027-6 4.027-10.152A10.48 10.48 0 0 0 16 1.778Zm4.969 19.555-.32.471c-1.529 2.294-3.556 4.863-4.649 6.134-1.049-1.271-3.12-3.84-4.649-6.134l-.311-.47c-1.573-2.347-3.733-5.556-3.733-9.165a8.694 8.694 0 0 1 17.386 0c0 3.644-2.15 6.853-3.724 9.164Z"/></g></svg>